HIERARCHY
ROOT hips
{
	OFFSET 0.000000 104.274902 0.000000
	CHANNELS 6 Xposition Yposition Zposition Xrotation Yrotation Zrotation
	JOINT spine
	{
		OFFSET 0.000000 10.181549 0.131524
		CHANNELS 6 Xposition Yposition Zposition Xrotation Yrotation Zrotation
		JOINT chest
		{
			OFFSET 0.000000 9.893990 -1.470706
			CHANNELS 3 Xrotation Yrotation Zrotation
			JOINT upperChest
			{
				OFFSET 0.000000 9.220787 -1.370637
				CHANNELS 3 Xrotation Yrotation Zrotation
				JOINT neck
				{
					OFFSET 0.000000 16.740372 -2.049022
					CHANNELS 6 Xposition Yposition Zposition Xrotation Yrotation Zrotation
					JOINT head
					{
						OFFSET 0.000000 9.617859 1.684976
						CHANNELS 6 Xposition Yposition Zposition Xrotation Yrotation Zrotation
						JOINT headEnd
						{
							OFFSET 0.000000 22.037384 7.501072
							CHANNELS 6 Xposition Yposition Zposition Xrotation Yrotation Zrotation
							End Site
							{
								OFFSET 0.000000 23.106567 -2.828246
							}
						}
					}
				}
				JOINT rightShoulder
				{
					OFFSET -4.570000 11.014877 -2.160840
					CHANNELS 6 Xposition Yposition Zposition Xrotation Yrotation Zrotation
					JOINT rightUpperArm
					{
						OFFSET -10.592867 -0.524796 -2.232105
						CHANNELS 3 Xrotation Yrotation Zrotation
						JOINT rightLowerArm
						{
							OFFSET -27.841497 0.000000 -0.000002
							CHANNELS 3 Xrotation Yrotation Zrotation
							JOINT rightHand
							{
								OFFSET -28.328812 0.000000 -0.000001
								CHANNELS 3 Xrotation Yrotation Zrotation
								JOINT rightThumbProximal
								{
									OFFSET -2.464798 -1.573990 2.681911
									CHANNELS 6 Xposition Yposition Zposition Xrotation Yrotation Zrotation
									JOINT rightThumbIntermediate
									{
										OFFSET -3.244781 -1.873383 1.873376
										CHANNELS 3 Xrotation Yrotation Zrotation
										JOINT rightThumbDistal
										{
											OFFSET -2.646263 -1.527817 1.527818
											CHANNELS 6 Xposition Yposition Zposition Xrotation Yrotation Zrotation
											JOINT rightHandThumb4
											{
												OFFSET -1.994591 -1.151581 1.151575
												CHANNELS 6 Xposition Yposition Zposition Xrotation Yrotation Zrotation
												End Site
												{
													OFFSET -1.860176 -1.142715 1.365483
												}
											}
										}
									}
								}
								JOINT rightIndexProximal
								{
									OFFSET -9.108299 -0.517883 2.259803
									CHANNELS 6 Xposition Yposition Zposition Xrotation Yrotation Zrotation
									JOINT rightIndexIntermediate
									{
										OFFSET -3.699997 0.000000 0.000000
										CHANNELS 3 Xrotation Yrotation Zrotation
										JOINT rightIndexDistal
										{
											OFFSET -2.850006 0.000000 0.000000
											CHANNELS 3 Xrotation Yrotation Zrotation
											JOINT rightHandIndex4
											{
												OFFSET -2.772194 0.000000 0.000000
												CHANNELS 3 Xrotation Yrotation Zrotation
												End Site
												{
													OFFSET -2.772202 0.000000 -0.000484
												}
											}
										}
									}
								}
								JOINT rightMiddleProximal
								{
									OFFSET -9.532501 0.000000 -0.000000
									CHANNELS 6 Xposition Yposition Zposition Xrotation Yrotation Zrotation
									JOINT rightMiddleIntermediate
									{
										OFFSET -3.699997 0.000000 0.000000
										CHANNELS 3 Xrotation Yrotation Zrotation
										JOINT rightMiddleDistal
										{
											OFFSET -2.949997 0.000000 0.000000
											CHANNELS 3 Xrotation Yrotation Zrotation
											JOINT rightHandMiddle4
											{
												OFFSET -2.946594 0.000000 0.000000
												CHANNELS 3 Xrotation Yrotation Zrotation
												End Site
												{
													OFFSET -2.946602 0.000000 -0.000982
												}
											}
										}
									}
								}
								JOINT rightRingProximal
								{
									OFFSET -9.103600 -0.043106 -1.865100
									CHANNELS 6 Xposition Yposition Zposition Xrotation Yrotation Zrotation
									JOINT rightRingIntermediate
									{
										OFFSET -3.379303 0.000000 0.000000
										CHANNELS 3 Xrotation Yrotation Zrotation
										JOINT rightRingDistal
										{
											OFFSET -2.889694 0.000000 0.000000
											CHANNELS 3 Xrotation Yrotation Zrotation
											JOINT rightHandRing4
											{
												OFFSET -2.638802 0.000000 0.000000
												CHANNELS 3 Xrotation Yrotation Zrotation
												End Site
												{
													OFFSET -2.638802 0.000000 0.004218
												}
											}
										}
									}
								}
								JOINT rightLittleProximal
								{
									OFFSET -8.076698 -0.486725 -3.806299
									CHANNELS 6 Xposition Yposition Zposition Xrotation Yrotation Zrotation
									JOINT rightLittleIntermediate
									{
										OFFSET -3.600006 0.000000 0.000000
										CHANNELS 3 Xrotation Yrotation Zrotation
										JOINT rightLittleDistal
										{
											OFFSET -2.099998 0.000000 0.000000
											CHANNELS 3 Xrotation Yrotation Zrotation
											JOINT rightHandPinky4
											{
												OFFSET -2.115791 0.000000 0.000000
												CHANNELS 3 Xrotation Yrotation Zrotation
												End Site
												{
													OFFSET -2.115799 0.000000 0.000174
												}
											}
										}
									}
								}
							}
						}
					}
				}
				JOINT leftShoulder
				{
					OFFSET 4.570400 11.014679 -2.160816
					CHANNELS 6 Xposition Yposition Zposition Xrotation Yrotation Zrotation
					JOINT leftUpperArm
					{
						OFFSET 10.592373 -0.524597 -2.232116
						CHANNELS 3 Xrotation Yrotation Zrotation
						JOINT leftLowerArm
						{
							OFFSET 27.841488 0.000000 0.000001
							CHANNELS 3 Xrotation Yrotation Zrotation
							JOINT leftHand
							{
								OFFSET 28.328808 0.000000 -0.000000
								CHANNELS 3 Xrotation Yrotation Zrotation
								JOINT leftThumbProximal
								{
									OFFSET 2.466103 -1.576202 2.681698
									CHANNELS 6 Xposition Yposition Zposition Xrotation Yrotation Zrotation
									JOINT leftThumbIntermediate
									{
										OFFSET 3.243317 -1.872528 1.872530
										CHANNELS 3 Xrotation Yrotation Zrotation
										JOINT leftThumbDistal
										{
											OFFSET 2.647881 -1.528763 1.528754
											CHANNELS 6 Xposition Yposition Zposition Xrotation Yrotation Zrotation
											JOINT leftHandThumb4
											{
												OFFSET 1.998924 -1.154083 1.154080
												CHANNELS 6 Xposition Yposition Zposition Xrotation Yrotation Zrotation
												End Site
												{
													OFFSET 1.884041 -1.149155 1.337651
												}
											}
										}
									}
								}
								JOINT leftIndexProximal
								{
									OFFSET 9.109299 -0.518005 2.259900
									CHANNELS 6 Xposition Yposition Zposition Xrotation Yrotation Zrotation
									JOINT leftIndexIntermediate
									{
										OFFSET 3.699997 0.000000 0.000000
										CHANNELS 3 Xrotation Yrotation Zrotation
										JOINT leftIndexDistal
										{
											OFFSET 2.850006 0.000000 0.000000
											CHANNELS 3 Xrotation Yrotation Zrotation
											JOINT leftHandIndex4
											{
												OFFSET 2.774895 0.000000 0.000000
												CHANNELS 3 Xrotation Yrotation Zrotation
												End Site
												{
													OFFSET 2.774902 0.000000 -0.000072
												}
											}
										}
									}
								}
								JOINT leftMiddleProximal
								{
									OFFSET 9.533401 0.000000 0.000000
									CHANNELS 6 Xposition Yposition Zposition Xrotation Yrotation Zrotation
									JOINT leftMiddleIntermediate
									{
										OFFSET 3.699997 0.000000 0.000000
										CHANNELS 3 Xrotation Yrotation Zrotation
										JOINT leftMiddleDistal
										{
											OFFSET 2.949997 0.000000 0.000000
											CHANNELS 3 Xrotation Yrotation Zrotation
											JOINT leftHandMiddle4
											{
												OFFSET 2.952896 0.000000 0.000000
												CHANNELS 3 Xrotation Yrotation Zrotation
												End Site
												{
													OFFSET 2.952904 0.000000 0.000165
												}
											}
										}
									}
								}
								JOINT leftRingProximal
								{
									OFFSET 9.104500 -0.042999 -1.865101
									CHANNELS 6 Xposition Yposition Zposition Xrotation Yrotation Zrotation
									JOINT leftRingIntermediate
									{
										OFFSET 3.149994 0.000000 0.000000
										CHANNELS 3 Xrotation Yrotation Zrotation
										JOINT leftRingDistal
										{
											OFFSET 2.950005 0.000000 0.000000
											CHANNELS 3 Xrotation Yrotation Zrotation
											JOINT leftHandRing4
											{
												OFFSET 2.644302 0.000000 0.000000
												CHANNELS 3 Xrotation Yrotation Zrotation
												End Site
												{
													OFFSET 2.644302 0.000000 0.000083
												}
											}
										}
									}
								}
								JOINT leftLittleProximal
								{
									OFFSET 8.077805 -0.486893 -3.806302
									CHANNELS 6 Xposition Yposition Zposition Xrotation Yrotation Zrotation
									JOINT leftLittleIntermediate
									{
										OFFSET 3.600006 0.000000 0.000000
										CHANNELS 3 Xrotation Yrotation Zrotation
										JOINT leftLittleDistal
										{
											OFFSET 2.099998 0.000000 0.000000
											CHANNELS 3 Xrotation Yrotation Zrotation
											JOINT leftHandPinky4
											{
												OFFSET 2.125496 0.000000 0.000000
												CHANNELS 3 Xrotation Yrotation Zrotation
												End Site
												{
													OFFSET 2.125504 0.000000 -0.001254
												}
											}
										}
									}
								}
							}
						}
					}
				}
			}
		}
	}
	JOINT rightUpperLeg
	{
		OFFSET -8.207800 -6.751701 -1.599544
		CHANNELS 6 Xposition Yposition Zposition Xrotation Yrotation Zrotation
		JOINT rightLowerLeg
		{
			OFFSET 0.000004 -44.370152 0.345934
			CHANNELS 3 Xrotation Yrotation Zrotation
			JOINT rightFoot
			{
				OFFSET 0.000004 -44.423664 -3.043535
				CHANNELS 3 Xrotation Yrotation Zrotation
				JOINT rightToes
				{
					OFFSET 0.000001 -8.728691 10.710592
					CHANNELS 3 Xrotation Yrotation Zrotation
					JOINT rightToesEnd
					{
						OFFSET 0.000000 -0.000665 9.278101
						CHANNELS 3 Xrotation Yrotation Zrotation
						End Site
						{
							OFFSET 0.000000 -0.000665 9.278103
						}
					}
				}
			}
		}
	}
	JOINT leftUpperLeg
	{
		OFFSET 8.207800 -6.751701 -1.599544
		CHANNELS 6 Xposition Yposition Zposition Xrotation Yrotation Zrotation
		JOINT leftLowerLeg
		{
			OFFSET 0.000004 -44.370037 0.346940
			CHANNELS 3 Xrotation Yrotation Zrotation
			JOINT leftFoot
			{
				OFFSET 0.000004 -44.423611 -3.044388
				CHANNELS 3 Xrotation Yrotation Zrotation
				JOINT leftToes
				{
					OFFSET 0.000001 -8.728690 10.710592
					CHANNELS 3 Xrotation Yrotation Zrotation
					JOINT leftToesEnd
					{
						OFFSET 0.000000 -0.000680 9.278101
						CHANNELS 3 Xrotation Yrotation Zrotation
						End Site
						{
							OFFSET 0.000000 -0.000680 9.278101
						}
					}
				}
			}
		}
	}
}
MOTION
Frames: 4
Frame Time: 0.033333
-3.904062 80.046875 0.176781 -6.901355 4.316198 -10.399261 0.000002 10.181545 0.131523 8.202360 -9.402571 0.413765 4.550896 -1.138448 7.767318 4.683139 -1.063260 7.696779 -0.000000 16.740364 -2.049021 0.691488 -4.439923 1.637016 -0.000000 9.617818 1.684981 -8.508221 -8.636036 -15.335976 0.000001 22.037369 7.501074 -0.000000 0.000001 -0.000001 -4.570007 11.014893 -2.160839 0.583410 14.994106 13.942055 19.556491 -6.880815 35.128144 -0.000034 54.254785 0.000061 2.759076 -6.469438 -4.709398 -2.464788 -1.574014 2.681912 -3.238731 -15.924033 -12.327246 5.224997 -15.134687 -0.677668 -2.646267 -1.527806 1.527817 -1.273755 0.137312 -2.094861 -1.994613 -1.151582 1.151572 0.000000 -0.000004 0.000003 -9.108300 -0.517872 2.259802 -0.427114 3.639248 6.352600 0.043209 -0.775531 6.377336 0.047146 -0.810005 6.662056 -0.000003 -0.000001 -0.000001 -9.532500 0.000011 -0.000001 0.006052 -0.350857 4.503455 0.058764 -0.903914 7.438658 -0.373488 -1.069594 8.266089 -0.000001 -0.000001 -0.000000 -9.103590 -0.043110 -1.865101 0.293824 -4.499256 3.705445 0.090181 -1.118451 9.218512 -0.556747 -1.396684 10.482160 -0.000000 0.000001 0.000000 -8.076691 -0.486714 -3.806298 0.710456 -9.617573 3.807401 0.158743 -1.480253 12.241992 0.170793 -1.534644 12.699535 -0.000002 0.000000 -0.000000 4.570400 11.014682 -2.160815 0.842951 -10.671163 -5.516586 48.098103 -20.065402 -29.583257 -0.000007 -45.723305 -0.000013 12.031065 0.015380 5.828013 2.466102 -1.576208 2.681713 -2.070020 20.070449 8.690517 4.272241 11.917708 1.052370 2.647872 -1.528752 1.528750 -0.579462 1.575008 2.538709 1.998924 -1.154085 1.154069 0.000003 0.000004 0.000003 9.109284 -0.518012 2.259904 0.025322 0.591282 -4.905792 0.038194 0.725819 -6.025797 0.045614 0.793007 -6.585812 -0.000000 -0.000000 0.000000 9.533404 -0.000003 0.000008 0.010883 0.387942 -3.216475 0.065604 0.950128 -7.898741 0.092021 1.124421 -9.359919 0.000000 -0.000001 0.000000 9.104502 -0.042995 -1.865088 0.005523 0.276368 -2.290690 0.119801 1.281511 -10.682549 0.178528 1.560889 -13.049513 0.000000 0.000001 0.000001 8.077821 -0.486889 -3.806291 0.119797 4.280924 -1.386172 0.251557 -2.203307 -16.044205 0.291972 1.987692 -16.713046 -0.000000 0.000002 0.000001 -8.207799 -6.751714 -1.599541 -29.112541 -16.667492 -8.936245 77.019419 -4.466936 -4.004032 -38.797066 -1.175316 13.810912 -6.408432 0.000004 0.000005 -0.000001 0.000001 -0.000000 8.207803 -6.751709 -1.599545 -33.772212 -2.010497 31.970541 77.533384 -7.154643 9.656892 -36.422175 5.696365 -18.212933 -5.199497 0.000002 -0.000000 -0.000000 -0.000002 -0.000000 
-2.427292 78.697937 -0.209448 -11.701324 0.269432 -6.261595 -0.000001 10.181557 0.131525 13.508676 -5.407691 0.120143 4.250626 -0.729585 4.480094 4.310120 -0.646364 4.444568 -0.000000 16.740398 -2.049022 1.488282 -3.656155 0.922424 -0.000004 9.617846 1.684973 0.681049 -12.335451 -9.913440 -0.000005 22.037369 7.501070 0.000002 0.000000 0.000001 -4.570001 11.014899 -2.160841 0.472458 17.543940 14.176823 24.749793 -9.302777 40.380130 -0.000038 59.947799 0.000077 6.470654 -3.693751 -8.501892 -2.464795 -1.573990 2.681913 -3.238721 -15.924045 -12.327258 5.224996 -15.134687 -0.677673 -2.646262 -1.527805 1.527817 -1.273753 0.137309 -2.094857 -1.994591 -1.151577 1.151570 -0.000004 -0.000006 0.000003 -9.108312 -0.517867 2.259807 -0.379434 3.734683 5.611301 0.038347 -0.730674 6.007075 0.044559 -0.787609 6.476948 -0.000004 -0.000002 0.000000 -9.532511 0.000003 0.000002 0.004353 -0.315170 4.210320 0.055839 -0.881260 7.251184 -0.414101 -1.062171 8.164419 0.000004 0.000001 -0.000001 -9.103600 -0.043106 -1.865096 0.301128 -4.510043 3.798217 0.092062 -1.130027 9.314849 -0.595489 -1.411712 10.538604 0.000001 0.000000 -0.000001 -8.076691 -0.486699 -3.806295 0.794429 -9.671215 4.308617 0.166708 -1.516492 12.546724 0.174900 -1.552747 12.851882 0.000001 0.000001 -0.000000 4.570402 11.014695 -2.160814 0.701945 -9.971214 -7.511473 49.074059 -15.686726 -25.303189 -0.000012 -46.275228 0.000000 13.732790 -3.964196 6.353884 2.466103 -1.576199 2.681693 -2.070018 20.070461 8.690516 4.272242 11.917716 1.052372 2.647888 -1.528758 1.528761 -0.579464 1.575007 2.538709 1.998921 -1.154096 1.154068 0.000001 0.000002 0.000001 9.109304 -0.518015 2.259898 0.029280 0.635777 -5.207081 0.040130 0.743960 -6.176925 0.046669 0.802052 -6.661392 -0.000000 0.000001 0.000000 9.533401 0.000005 -0.000002 0.012162 0.409874 -3.359594 0.067140 0.961289 -7.992072 0.093029 1.130447 -9.410634 0.000000 0.000000 -0.000000 9.104504 -0.042995 -1.865099 0.005689 0.280380 -2.306747 0.119783 1.281386 -10.681465 0.178448 1.560607 -13.047243 0.000000 -0.000000 0.000000 8.077806 -0.486896 -3.806301 0.111928 4.268436 -1.280490 0.249073 -2.211948 -15.969807 0.290699 1.983366 -16.675758 -0.000000 -0.000001 0.000001 -8.207801 -6.751699 -1.599544 -27.941384 -9.697330 -14.691587 81.220703 -2.507481 -0.333369 -39.887130 0.301099 13.006959 -5.073442 0.000005 -0.000002 0.000000 0.000001 0.000000 8.207799 -6.751697 -1.599548 -26.990678 0.446609 26.280976 80.086857 -5.549652 8.630656 -38.794160 12.229572 -17.238129 -3.995214 0.000005 -0.000004 -0.000000 -0.000001 0.000000 
-1.002281 77.682602 -0.429276 -14.476328 -7.666756 -0.866774 0.000000 10.181541 0.131528 14.535414 1.583961 -1.813941 4.044567 0.216960 -0.027593 4.081379 0.237368 -0.020212 0.000000 16.740404 -2.049021 1.497549 -3.164949 0.398483 -0.000001 9.617830 1.684978 5.905098 -14.164631 -4.218454 -0.000003 22.037384 7.501073 -0.000001 -0.000001 0.000001 -4.570002 11.014855 -2.160841 0.476651 18.406118 13.729605 29.406143 -6.505138 45.359047 -0.000040 59.991259 0.000086 9.320438 0.002230 -8.251865 -2.464792 -1.573987 2.681915 -3.238722 -15.924055 -12.327261 5.224993 -15.134682 -0.677675 -2.646272 -1.527804 1.527815 -1.273751 0.137311 -2.094859 -1.994597 -1.151585 1.151578 -0.000001 -0.000001 -0.000000 -9.108288 -0.517881 2.259807 -0.311528 3.865547 4.586650 0.032096 -0.668649 5.495408 0.041112 -0.756622 6.221099 -0.000000 0.000001 -0.000004 -9.532490 -0.000011 0.000004 0.001357 -0.240448 3.596880 0.049503 -0.829848 6.825935 -0.443758 -1.035363 7.929182 0.000008 0.000001 -0.000001 -9.103598 -0.043132 -1.865098 0.274331 -4.470185 3.455919 0.087326 -1.100814 9.071909 -0.624670 -1.398558 10.402688 0.000001 -0.000001 0.000000 -8.076687 -0.486728 -3.806296 0.768580 -9.654821 4.154606 0.164244 -1.505357 12.453089 0.173619 -1.547192 12.805057 -0.000003 -0.000000 -0.000000 4.570400 11.014693 -2.160815 0.700958 -8.413656 -7.397236 43.362446 -12.902256 -23.195748 -0.000001 -42.832629 -0.000009 18.526267 -7.120112 6.191560 2.466101 -1.576202 2.681711 -2.070018 20.070455 8.690495 4.272240 11.917709 1.052368 2.647885 -1.528757 1.528754 -0.579465 1.575007 2.538703 1.998917 -1.154091 1.154067 -0.000004 -0.000001 -0.000000 9.109302 -0.518016 2.259904 0.031693 0.661430 -5.522396 0.042193 0.762777 -6.333862 0.047766 0.811458 -6.739860 0.000000 -0.000000 0.000000 9.533401 -0.000002 0.000004 0.013450 0.431312 -3.594803 0.070087 0.981950 -8.165220 0.094948 1.141986 -9.507699 0.000000 0.000000 0.000001 9.104500 -0.042991 -1.865095 0.006618 0.302492 -2.515695 0.123620 1.301596 -10.851909 0.181115 1.572082 -13.144860 0.000000 0.000001 -0.000000 8.077815 -0.486896 -3.806294 0.129247 4.295864 -1.512541 0.254535 -2.192994 -16.133156 0.293533 1.992846 -16.757630 0.000001 -0.000001 -0.000001 -8.207805 -6.751698 -1.599539 -30.268526 -2.257036 -20.405124 84.257521 -3.094220 -2.095138 -39.495617 4.307192 15.420991 -2.925708 0.000019 0.000003 -0.000000 -0.000000 0.000000 8.207798 -6.751694 -1.599546 -20.083208 2.736514 19.879365 80.518149 -1.602565 2.723650 -40.456133 16.009887 -17.306728 -0.636436 0.000002 -0.000001 0.000000 -0.000000 0.000000 
-1.027459 77.193665 -0.573103 -12.297910 -17.027209 4.315807 -0.000001 10.181550 0.131526 12.702467 8.922066 -5.223268 3.835740 1.254549 -3.763131 3.883037 1.217283 -3.716022 0.000001 16.740356 -2.049021 0.921239 -2.866239 0.188418 -0.000001 9.617844 1.684975 7.605225 -14.001312 -0.274081 0.000002 22.037369 7.501077 0.000001 -0.000001 0.000001 -4.570003 11.014898 -2.160839 0.517241 18.200052 13.261698 31.698659 -0.153057 46.248949 -0.000048 56.198076 0.000089 9.814291 1.565665 -3.967485 -2.464805 -1.574010 2.681915 -3.238711 -15.924038 -12.327237 5.224994 -15.134683 -0.677674 -2.646280 -1.527794 1.527821 -1.273751 0.137309 -2.094862 -1.994605 -1.151581 1.151576 0.000002 -0.000001 -0.000000 -9.108310 -0.517888 2.259804 -0.255966 3.968527 3.773323 0.027528 -0.619391 5.089380 0.038477 -0.732037 6.018089 -0.000000 0.000001 -0.000002 -9.532501 0.000003 0.000001 -0.000859 -0.162975 2.961225 0.043103 -0.774635 6.369832 -0.448173 -1.002348 7.674799 -0.000000 0.000001 0.000000 -9.103614 -0.043104 -1.865105 0.227336 -4.399050 2.848198 0.078705 -1.045271 8.610520 -0.630089 -1.363740 10.142111 -0.000001 0.000000 -0.000000 -8.076700 -0.486722 -3.806295 0.647150 -9.576433 3.427665 0.152831 -1.452741 12.011099 0.167717 -1.520938 12.584041 -0.000004 0.000000 -0.000000 4.570401 11.014703 -2.160815 0.699347 -6.865745 -6.355315 33.067654 -13.035055 -22.165507 -0.000009 -33.147793 0.000005 22.198226 -7.624126 7.812034 2.466100 -1.576213 2.681693 -2.070025 20.070444 8.690508 4.272244 11.917714 1.052368 2.647880 -1.528762 1.528758 -0.579460 1.575008 2.538708 1.998916 -1.154078 1.154079 -0.000001 0.000001 0.000003 9.109297 -0.518015 2.259899 0.033834 0.683190 -5.715445 0.043487 0.774356 -6.430308 0.048460 0.817228 -6.788092 -0.000000 0.000001 0.000002 9.533402 0.000005 -0.000005 0.015163 0.457622 -3.820148 0.073179 1.003359 -8.344291 0.097001 1.154127 -9.609702 -0.000000 0.000003 0.000001 9.104503 -0.042999 -1.865107 0.008362 0.339633 -2.826671 0.129786 1.333344 -11.120176 0.185406 1.590302 -13.300189 -0.000001 -0.000002 -0.000001 8.077816 -0.486897 -3.806304 0.164566 4.351026 -1.981042 0.265740 -2.154729 -16.462923 0.299285 2.011892 -16.922897 0.000000 -0.000000 0.000000 -8.207800 -6.751696 -1.599541 -36.584884 4.494409 -20.308067 85.707406 -5.187746 -7.129007 -38.698209 6.305728 17.876482 -3.385721 -0.000007 0.000003 0.000000 -0.000000 0.000000 8.207799 -6.751704 -1.599545 -17.938542 5.232391 16.863370 79.445366 -1.158605 -5.423761 -40.982614 18.871570 -15.934650 -0.000043 0.000002 -0.000009 0.000000 0.000000 0.000000 
